<svg width="19" height="14" viewBox="0 0 19 14" fill="none" xmlns="http://www.w3.org/2000/svg">
<path d="M4.074 13.202C6.426 13.202 7.581 12.278 8.505 10.43L8.463 14H0.819C1.26 12.782 1.365 11.711 1.365 10.577V3.773C1.365 2.639 1.26 1.568 0.819 0.349999H4.074C3.696 1.568 3.612 2.639 3.612 3.773V10.577C3.612 11.459 3.633 12.299 3.759 13.202H4.074ZM13.531 0.349999C15.232 0.349999 18.235 0.707 18.235 4.361C18.235 7.364 15.988 9.044 13.069 9.044H12.397V10.577C12.397 11.711 12.523 12.782 12.964 14H9.60396C10.066 12.782 10.15 11.711 10.15 10.577V3.773C10.15 2.639 10.066 1.568 9.60396 0.349999H13.531ZM13.006 8.309C14.791 8.309 15.862 7.091 15.862 4.718C15.862 2.114 14.749 1.064 12.859 1.064H12.46C12.418 1.967 12.397 2.87 12.397 3.773V8.309H13.006Z" fill="#CACACA"/>
</svg>
