<svg width="225" height="176" viewBox="0 0 225 176" fill="none" xmlns="http://www.w3.org/2000/svg">
<path d="M42.6413 165.71C72.8921 165.71 87.7474 153.839 99.6317 130.098L99.0915 175.962H0.776367C6.44839 160.314 7.79887 146.555 7.79887 131.987V44.5754C7.79887 30.0069 6.44839 16.2477 0.776367 0.599976H42.6413C37.7796 16.2477 36.6992 30.0069 36.6992 44.5754V131.987C36.6992 143.318 36.9693 154.109 38.5899 165.71H42.6413ZM164.275 0.599976C186.153 0.599976 224.776 5.18638 224.776 52.1295C224.776 90.7091 195.876 112.292 158.333 112.292H149.69V131.987C149.69 146.555 151.31 160.314 156.982 175.962H113.766C119.709 160.314 120.789 146.555 120.789 131.987V44.5754C120.789 30.0069 119.709 16.2477 113.766 0.599976H164.275ZM157.522 102.85C180.481 102.85 194.255 87.2019 194.255 56.7158C194.255 23.2622 179.94 9.77277 155.632 9.77277H150.5C149.96 21.3736 149.69 32.9745 149.69 44.5754V102.85H157.522Z" fill="#CACACA"/>
</svg>
